<?xml version="1.0" encoding="UTF-8"?>
<svg id="Layer_2" data-name="Layer 2" xmlns="http://www.w3.org/2000/svg" viewBox="0 0 572.3 151.15">
  <defs>
    <style>
      .cls-1, .cls-2 {
        fill: #fff;
        stroke: #000;
        stroke-miterlimit: 10;
        stroke-width: 2px;
      }

      .cls-2 {
        fill-rule: evenodd;
      }
    </style>
  </defs>
  <g id="Layer_1-2" data-name="Layer 1">
    <path id="path22" class="cls-1" d="M245.8,118.6c-3.5,0-5-4.7-5-17.6,0-6.7,3.3-8.4,12.5-8.4h6.2c-2.9,9.2-6.9,26-13.7,26m-18.8-8.9c0,3.4,.4,6.3,1,8.7h-49c-6.6,0-10.7-1.5-10.7-7.5v-16.7h15.3c1.2-3.8,2.1-7.1,2.5-10.8h-17.9c.1-5.1,.5-9.7,.8-15-5.8,2.1-10.4,4.5-14.2,8.7v6.3h-7.9c-.6,4.5-.6,7.9-.8,10.8h8.7v17.6c0,12.3,7.4,17.6,17.6,17.6h66.6c8.1,0,14.4-6.7,20.5-21.9v21.9h13.3v-46c-6.1-.5-11.5-.8-17.6-.8-16.4-.1-28.2,6.9-28.2,27.1m70.1-5.1v-4.5c0-5.8-.4-10.9-1.2-16.7h-13c.4,5.8,.8,10.8,.8,16.7v29.3h13.3c0-16.4,5.2-35.1,19.2-33,0-2.9-.4-9.6-1.2-13.8-10.1,.9-15.1,9.9-17.9,22m-184,14c-3.5,0-5-4.7-5-17.6,0-6.7,3.3-8.4,12.5-8.4h6.3c-3,9.2-7,26-13.8,26m-18.8-8.9c0,13.8,5,20.5,11.6,20.5,8.3,0,14.7-7.3,20.8-22.7v21.9h13.4v-46c-6.1-.5-11.5-.8-17.6-.8-16.4-.1-28.2,6.9-28.2,27.1m435.5-21.2c0-11.4-7.9-18.3-22.1-18.3-7.9,0-13.6,1.7-17.1,3.4-2.1,2.8-2.9,6.1-4.1,11.3,5.3-2.1,10.5-3.8,18.3-3.8,6.3,0,11.3,2.6,11.3,10.1,0,7.9-5,13.7-31.8,29.3,0,1.7,.1,5,.8,9.2h44.2c1.2-3.8,2.1-7.1,2.5-10.8h-37.7c18.8-6.7,35.7-13.6,35.7-30.4M62.8,116.5l-.7-.4c-8-4.2-18.8-10.8-18.8-22.7,0-10.9,7-16,15.4-16,9.4,0,15,6.6,15,18.1,.1,8.1-4.3,15.2-10.9,21m25.6,13.7l-22-11.7c12.5-4.5,21.6-13.4,21.6-26.1,0-17-12.8-25.6-29.3-25.6-15.2,0-29.6,9.7-29.6,28.4,0,15.8,12,25.2,25.2,32.2l42.4,22.1c0-9.8-1.1-15.4-8.3-19.3m312.7-5c-3.8,0-15.4-7.6-15.4-28,0-10.1,5.8-16.2,15.4-16.2s15.4,6.3,15.4,16.2c.1,20.4-11.7,28-15.4,28m0-55.2c-16.7,0-29.3,10.1-29.3,26.3,0,21.4,20.5,33.9,29.3,33.9s29.3-12.5,29.3-33.9c-.1-16.2-12.6-26.3-29.3-26.3m.2,22.8c-2.9,2.1-5.4,4.5-7.6,7.3,2.2,2.8,4.7,5.2,7.6,7.3,2.9-2.1,5.4-4.5,7.6-7.3-2.1-2.8-4.7-5.2-7.6-7.3m76.7-4.3c0-11.4-7.9-18.3-22.2-18.3-7.9,0-13.6,1.7-17.1,3.4-2,2.8-2.9,6.1-4.1,11.3,5.3-2.1,10.5-3.8,18.4-3.8,6.3,0,11.3,2.6,11.3,10.1,0,7.9-5,13.7-31.8,29.3,0,1.7,.1,5,.8,9.2h44.3c1.2-3.8,2.1-7.1,2.5-10.8h-37.7c18.8-6.7,35.6-13.6,35.6-30.4m-112.8,0c0-11.4-7.9-18.3-22.1-18.3-7.9,0-13.6,1.7-17.1,3.4-2.1,2.8-2.9,6.1-4.1,11.3,5.3-2.1,10.5-3.8,18.3-3.8,6.3,0,11.3,2.6,11.3,10.1,0,7.9-5,13.7-31.8,29.3,0,1.7,.1,5,.8,9.2h44.3c1.2-3.8,2.1-7.1,2.5-10.8h-37.7c18.8-6.7,35.6-13.6,35.6-30.4"/>
    <path id="path26" class="cls-1" d="M479.2,50.5c-2,.5-4,1-6.2,1.3-2.3,.5-5.1,.6-8.5,.6s-6.7-.5-10.1-1.3c-3.4-.8-6.5-2.3-9.1-4.4-2.6-2-5-4.6-6.7-7.9-1.7-3.3-2.5-7.1-2.5-11.9,0-4.2,.7-8.1,2.2-11.3,1.5-3.3,3.4-5.9,5.9-8.1s5.6-3.8,9-4.9c3.5-1.1,7.3-1.6,11.3-1.6,2.5,0,5.1,.3,7.4,.7,2.4,.5,4.9,1.1,7.3,1.8l-1.1,10.7c-2.2-1.2-4.2-2.1-6.3-2.6-2.1-.6-4.2-.8-6.6-.8s-4.5,.4-6.5,1.2-3.5,2-4.9,3.3c-1.3,1.5-2.4,3.2-3.2,5.1-.8,1.9-1.1,4.1-1.1,6.5s.4,4.6,1.2,6.6,2,3.5,3.4,5c1.5,1.3,3.2,2.4,5.2,3,2.1,.7,4.2,1.1,6.7,1.1,2.2,0,4.4-.3,6.5-.7,2.2-.5,4.1-1.1,5.9-1.8l.8,10.4Z"/>
    <path id="path30" class="cls-1" d="M526.7,32.7c0,3.4-.5,6.3-1.6,8.8-1.1,2.4-2.5,4.5-4.5,6.1s-4.2,2.8-6.9,3.7c-2.7,.8-5.6,1.2-8.8,1.2s-6.2-.4-8.8-1.2c-2.6-.7-5-2-6.9-3.7-2-1.6-3.4-3.7-4.5-6.1-1.1-2.4-1.6-5.3-1.6-8.8V2h13.2V30.5c0,1.7,.1,3.2,.4,4.6,.3,1.5,.7,2.6,1.3,3.9,.6,1.1,1.5,2,2.5,2.6,1.1,.6,2.4,1,4.1,1s3.2-.4,4.2-1c1.1-.6,2-1.5,2.5-2.6,.6-1.1,1.1-2.4,1.3-3.9,.3-1.5,.4-3,.4-4.6V2h13.2v30.7h.5Z"/>
    <path id="path34" class="cls-1" d="M546.5,25h3.4c1.1,0,2.2-.1,3.2-.4s1.8-.6,2.5-1.1,1.3-1.2,1.7-2.2c.4-.8,.6-2,.6-3.3s-.3-2.3-.6-3.2c-.5-.8-1-1.6-1.7-2.1s-1.6-.8-2.5-1.1c-1-.3-2.1-.4-3.2-.4h-3.4v13.8Zm-13.2-22.9h15.8c7.6,0,13.2,1.3,16.9,3.9,3.7,2.6,5.3,6.7,5.3,12.4,0,5-1.7,9-5.2,11.7-3.5,2.8-8.3,4.2-14.4,4.2h-5.1v17.4h-13.3V2.1Z"/>
    <path id="path38" class="cls-1" d="M160.8,2h13.4l6.5,38.1h.1L187.5,2h16.6l7,38.1h.1L217.7,2h12.9l-11.1,49.5h-17l-7-38.1h-.1l-6.6,38.1h-17.1L160.8,2Z"/>
    <path id="path42" class="cls-1" d="M244.7,26.7c0,2.1,.3,4,.6,5.9,.4,2,1.1,3.7,2,5.1,.8,1.5,2.1,2.6,3.5,3.5s3.2,1.3,5.1,1.3,3.7-.5,5.1-1.3c1.5-.8,2.5-2.1,3.5-3.5,.8-1.5,1.6-3.2,2-5.1,.4-2,.6-3.9,.6-5.9,0-2.1-.3-4.1-.6-6.1-.5-2-1.1-3.7-2-5.1-.8-1.5-2.1-2.5-3.5-3.4-1.5-.8-3.2-1.2-5.1-1.2-2,0-3.7,.4-5.1,1.2-1.4,.8-2.5,2.1-3.5,3.4-.8,1.5-1.6,3.2-2,5.1-.4,2-.6,4.1-.6,6.1m-13.6,0c0-4,.5-7.5,1.6-10.7s2.6-5.8,4.7-8,4.7-3.9,7.8-5.1c3.2-1.2,6.7-1.8,10.8-1.8s7.6,.6,10.8,1.8,5.7,2.9,7.8,5.1c2.1,2.2,3.7,4.9,4.7,8,1.1,3.1,1.6,6.8,1.6,10.7s-.5,7.5-1.6,10.7-2.6,5.8-4.7,8.1c-2.1,2.2-4.7,3.9-7.8,5.1-3,1.2-6.7,1.8-10.7,1.8s-7.6-.6-10.7-1.8c-3.1-1.2-5.7-2.9-7.8-5.1-2.1-2.2-3.7-5-4.7-8.1-1.2-3.1-1.8-6.7-1.8-10.7"/>
    <path id="path46" class="cls-1" d="M298.9,22.7h3.5c1.1,0,2.2,0,3.3-.1,1.2-.1,2.2-.3,3.2-.7s1.7-1,2.3-1.7,1-1.8,1-3.3c0-1.1-.3-2.1-.8-2.8s-1.2-1.3-2.1-1.7c-.8-.4-2-.6-3-.7-1.2-.1-2.4-.3-3.7-.3h-3.5v11.3h-.2Zm-13.2-20.6h23.6c2.2,0,4.2,.3,6.2,.7,2,.5,3.7,1.3,5.1,2.3,1.5,1.1,2.6,2.3,3.4,3.9,.8,1.6,1.2,3.4,1.2,5.6,0,3.3-.7,6.1-2.3,8.1-1.6,2.1-4,3.5-7.1,4.4v.1c1.1,.3,1.8,.7,2.5,1.3,.6,.6,1.2,1.3,1.7,2.3s.8,2,1.3,3.2c.4,1.2,1,2.5,1.6,4.1l4.9,13.4h-13.7l-2.8-9c-.6-2.2-1.3-3.9-1.8-5.2-.6-1.3-1.2-2.4-2-3.3-.8-.9-1.5-1.3-2.3-1.7s-2-.5-3.2-.5h-2.8v19.9h-13.2V2.1h-.3Z"/>
    <path id="path50" class="cls-1" d="M333.3,2h13.2V41.8h20.4v9.8h-33.6V2h0Z"/>
    <path id="path54" class="cls-1" d="M384.7,41.8h5.1c5,0,8.7-1.2,11.4-3.8,2.6-2.5,4-6.2,4-11.2s-1.3-8.7-4-11.2c-2.6-2.5-6.5-3.8-11.4-3.8h-5.1v30ZM371.5,2h18.1c4.4,0,8.3,.4,11.9,1.1,3.7,.7,6.7,2.1,9.2,4,2.5,1.8,4.6,4.4,6.1,7.5s2.2,7.1,2.2,11.9-.7,8.5-2.2,11.7-3.5,5.7-6.1,7.6c-2.5,2-5.7,3.4-9.4,4.2s-7.5,1.3-11.7,1.3h-18.1V2h0Z"/>
    <path id="path58" class="cls-2" d="M1,2V51.5h15.4v-17.8h11.2l4-10.8h-15.2V12.8h18.7l3.9-10.8H1Z"/>
    <path id="path60" class="cls-2" d="M43.8,51.6h15.4V2.1h-15.4V51.6h0Z"/>
    <path id="path64" class="cls-2" d="M69.8,2V51.5h15.4v-17.8h11.1l4-10.8h-15V12.8h18.7l3.9-10.8h-38.1Z"/>
    <path id="path68" class="cls-2" d="M131.8,35.4l-6.2-20.6-5.9,20.6h12.1Zm20.1,16.2h-15.5l-2.1-6.7h-17.4l-2,6.7h-15.2L117.8,2.1h16l18.1,49.5Z"/>
  </g>
</svg>